# xmcd CD database file
#
# Track frame offsets:
#	750
#	15215
#	31337
#	47212
#	65650
#	80915
#	95282
#	108937
#	123925
#	138377
#	153067
#	169542
#	184684
#	199217
#
# Disc length: 2854 seconds
#
# Revision: 2
# Processed by: cddbd v1.4PL0 Copyright (c) Steve Scherf et al.
# Submitted via: CDex 1.50Beta7
#
DISCID=ad0b1c0e
DTITLE=Tom Astor - Mein Eldorado
DYEAR=1900
DGENRE=Country
TTITLE0=Ich hab wieder Hunger
TTITLE1=Wenn du zwei Arme brauchst- die dich umarmen 
TTITLE2=Gib dem Teufel nie die Hand
TTITLE3=Wenn Gefühle niemals enden
TTITLE4=Mein Eldorado
TTITLE5=Wieder ein Morgen (Morning Has Broken)
TTITLE6=Wakantanka - Großer Manitu (Gebet eines Indianers)
TTITLE7=Männer sind wie Gott sie schuf
TTITLE8=Fremder (Stranger)
TTITLE9=Ich komme gern nach Haus
TTITLE10=Wenn ich dich mal brauche (If I Needed You) Duett mit Leif
TTITLE11=Yaba Daba Daba Doo
TTITLE12=Der letzte Gitarrist 
TTITLE13=Liebe lässt Wunder gescheh´n (Denken nicht an unsere Kinder)
EXTD=
EXTT0=
EXTT1=
EXTT2=
EXTT3=
EXTT4=
EXTT5=
EXTT6=
EXTT7=
EXTT8=
EXTT9=
EXTT10=
EXTT11=
EXTT12=
EXTT13=
PLAYORDER=
